<svg width="22" height="24" viewBox="0 0 22 24" fill="none" xmlns="http://www.w3.org/2000/svg">
<path d="M8.13855 17.236C7.78182 17.236 7.486 16.9059 7.486 16.5078V12.4394L6.85955 13.1385C6.60724 13.4201 6.1896 13.4201 5.93729 13.1385C5.68497 12.8569 5.68497 12.3908 5.93729 12.1092L7.67741 10.1673C7.86013 9.96335 8.14725 9.89539 8.39087 10.0119C8.63448 10.1187 8.7911 10.3906 8.7911 10.6819V16.5078C8.7911 16.9059 8.49527 17.236 8.13855 17.236Z" fill="#040000"/>
<path d="M9.87878 13.353C9.71347 13.353 9.54816 13.2851 9.41765 13.1394L7.67752 11.1975C7.4252 10.9159 7.4252 10.4498 7.67752 10.1682C7.92984 9.88664 8.34747 9.88664 8.59979 10.1682L10.3399 12.1102C10.5922 12.3918 10.5922 12.8578 10.3399 13.1394C10.2094 13.2851 10.0441 13.353 9.87878 13.353Z" fill="#040000"/>
<path d="M13.3599 22.089H8.13948C3.41503 22.089 1.39648 19.8363 1.39648 14.5639V8.738C1.39648 3.46557 3.41503 1.21289 8.13948 1.21289H12.4898C12.8465 1.21289 13.1423 1.54302 13.1423 1.94113C13.1423 2.33923 12.8465 2.66936 12.4898 2.66936H8.13948C4.12848 2.66936 2.70158 4.26177 2.70158 8.738V14.5639C2.70158 19.0401 4.12848 20.6325 8.13948 20.6325H13.3599C17.3709 20.6325 18.7978 19.0401 18.7978 14.5639V9.70898C18.7978 9.31088 19.0936 8.98075 19.4503 8.98075C19.807 8.98075 20.1029 9.31088 20.1029 9.70898V14.5639C20.1029 19.8363 18.0843 22.089 13.3599 22.089Z" fill="#040000"/>
<path d="M19.4509 10.4377H15.9707C12.9951 10.4377 11.8379 9.14633 11.8379 5.82558V1.94165C11.8379 1.65035 11.9945 1.37848 12.2381 1.27167C12.4817 1.15515 12.7602 1.22312 12.9516 1.42703L19.9121 9.19488C20.0948 9.39879 20.1557 9.71921 20.0513 9.99109C19.9469 10.263 19.712 10.4377 19.4509 10.4377ZM13.143 3.69912V5.82558C13.143 8.33071 13.7259 8.98127 15.9707 8.98127H17.8761L13.143 3.69912Z" fill="#040000"/>
</svg>
