<svg width="30" height="30" viewBox="0 0 30 30" fill="none" xmlns="http://www.w3.org/2000/svg">
<path d="M14.7908 7.01539C14.7585 7.01539 14.7226 7.01192 14.6902 7.00383L5.94215 4.99457C5.74331 4.95064 5.60228 4.77261 5.59879 4.56798C5.59532 4.36336 5.73174 4.18301 5.92712 4.12982L14.6752 1.79804C14.755 1.77723 14.8382 1.77723 14.9145 1.8015L22.7537 4.13329C22.9456 4.18994 23.0728 4.36682 23.0705 4.56799C23.067 4.76683 22.9318 4.94139 22.7364 4.98881L14.8972 6.99807C14.8613 7.00731 14.8232 7.01309 14.7873 7.01309L14.7908 7.01539ZM7.88682 4.5287L14.7852 6.11253L20.968 4.5287L14.7852 2.68822L7.88682 4.52636V4.5287Z" fill="#FF6A1F"/>
<path d="M14.7949 12.6847C13.7024 12.6847 12.6111 12.5043 11.5696 12.1459L9.21122 11.3321C9.03319 11.2696 8.9118 11.1009 8.9118 10.9113V5.3204C8.9118 5.07531 9.11065 4.87646 9.35573 4.87646C9.60082 4.87646 9.79966 5.07531 9.79966 5.3204V10.5943L11.8598 11.3041C13.7534 11.9584 15.8377 11.9584 17.7279 11.3041L19.788 10.5943V5.3204C19.788 5.07531 19.9869 4.87646 20.232 4.87646C20.4771 4.87646 20.6759 5.07531 20.6759 5.3204V10.9113C20.6759 11.1008 20.5545 11.2696 20.3765 11.3321L18.0181 12.1459C16.9788 12.5043 15.884 12.6847 14.7928 12.6847H14.7949Z" fill="#FF6A1F"/>
<path d="M23.5376 9.60587C23.2925 9.60587 23.0937 9.40703 23.0937 9.16194V5.46844C23.0937 5.21411 22.8867 5.00371 22.6289 5.00371C22.3711 5.00371 22.185 4.80486 22.185 4.55978C22.185 4.31469 22.3838 4.11584 22.6289 4.11584C23.3746 4.11584 23.9815 4.72279 23.9815 5.46844V9.16194C23.9815 9.40703 23.7827 9.60587 23.5376 9.60587Z" fill="#FF6A1F"/>
<path d="M26.2946 23.279H3.28658C2.46347 23.279 1.79178 22.6073 1.79178 21.7842V6.10454C1.79178 5.28144 2.46345 4.60974 3.28658 4.60974H4.44959C4.69468 4.60974 4.89352 4.80859 4.89352 5.05367C4.89352 5.29876 4.69468 5.4976 4.44959 5.4976H3.28658C2.95248 5.4976 2.67964 5.77044 2.67964 6.10454V21.7842C2.67964 22.1183 2.95247 22.3911 3.28658 22.3911H26.297C26.6311 22.3911 26.9039 22.1183 26.9039 21.7842V6.10454C26.9039 5.77044 26.6311 5.4976 26.297 5.4976H25.134C24.8889 5.4976 24.69 5.29876 24.69 5.05367C24.69 4.80859 24.8889 4.60974 25.134 4.60974H26.297C27.1201 4.60974 27.7918 5.28141 27.7918 6.10454V21.7842C27.7918 22.6073 27.1201 23.279 26.297 23.279H26.2946Z" fill="#FF6A1F"/>
<path d="M12.0596 27.827C11.8145 27.827 11.6156 27.6281 11.6156 27.383V22.8375C11.6156 22.5924 11.8145 22.3936 12.0596 22.3936C12.3046 22.3936 12.5035 22.5924 12.5035 22.8375V27.383C12.5035 27.6281 12.3046 27.827 12.0596 27.827Z" fill="#FF6A1F"/>
<path d="M17.4616 27.827C17.2165 27.827 17.0176 27.6281 17.0176 27.383V22.8375C17.0176 22.5924 17.2165 22.3936 17.4616 22.3936C17.7066 22.3936 17.9055 22.5924 17.9055 22.8375V27.383C17.9055 27.6281 17.7066 27.827 17.4616 27.827Z" fill="#FF6A1F"/>
<path d="M19.3933 27.8283H9.50899C9.26391 27.8283 9.06506 27.6294 9.06506 27.3844C9.06506 27.1393 9.26391 26.9404 9.50899 26.9404H19.3933C19.6383 26.9404 19.8372 27.1393 19.8372 27.3844C19.8372 27.6294 19.6383 27.8283 19.3933 27.8283Z" fill="#FF6A1F"/>
<path d="M9.97531 20.4163H5.70145C5.21011 20.4163 4.80782 20.0162 4.80782 19.5249V15.2511C4.80782 14.7597 5.20783 14.3597 5.70145 14.3597H9.97531C10.4667 14.3597 10.8666 14.7598 10.8666 15.2511V19.5249C10.8666 20.0163 10.4666 20.4163 9.97531 20.4163ZM5.70234 15.2462L5.69656 19.5225H9.97279H9.97626V15.2486H5.70002L5.70234 15.2462Z" fill="#FF6A1F"/>
<path d="M24.3357 16.4131H12.9451C12.7 16.4131 12.5011 16.2143 12.5011 15.9692C12.5011 15.7241 12.7 15.5253 12.9451 15.5253H24.3357C24.5808 15.5253 24.7797 15.7241 24.7797 15.9692C24.7797 16.2143 24.5808 16.4131 24.3357 16.4131Z" fill="#FF6A1F"/>
<path d="M19.8201 19.0487H12.9451C12.7 19.0487 12.5011 18.8499 12.5011 18.6048C12.5011 18.3597 12.7 18.1609 12.9451 18.1609H19.8201C20.0652 18.1609 20.264 18.3597 20.264 18.6048C20.264 18.8499 20.0652 19.0487 19.8201 19.0487Z" fill="#FF6A1F"/>
</svg>
